<svg xmlns="http://www.w3.org/2000/svg" viewBox="0 0 450 253" role="img" aria-labelledby="title desc">
  <title id="title">FIOCRUZ Fundação Oswaldo Cruz</title>
  <desc id="desc">Marca Fiocruz com símbolo do castelo acima do texto Fundação Oswaldo Cruz.</desc>
  <rect width="450" height="253" fill="#ffffff"/>
  <g fill="none" stroke="#111111" stroke-width="9" stroke-linejoin="miter" stroke-linecap="square">
    <path d="M153 154H297"/>
    <path d="M166 154V89"/>
    <path d="M284 154V89"/>
    <path d="M166 89H201V58"/>
    <path d="M284 89H249V58"/>
    <path d="M201 58H249"/>
    <path d="M214 58V88"/>
    <path d="M236 58V88"/>
    <path d="M176 89V62C176 40 189 30 201 30C213 30 224 40 224 62"/>
    <path d="M226 62C226 40 237 30 249 30C262 30 274 40 274 62V89"/>
    <path d="M194 30V14"/>
    <path d="M256 30V14"/>
    <path d="M166 112H153"/>
    <path d="M166 132H153"/>
    <path d="M284 112H297"/>
    <path d="M284 132H297"/>
  </g>
  <g fill="#111111" text-anchor="middle">
    <text x="225" y="203" font-family="Arial Black, Impact, Arial, sans-serif" font-size="45" font-weight="900" letter-spacing="-1">FIOCRUZ</text>
    <text x="225" y="233" font-family="Arial, Helvetica, sans-serif" font-size="27" font-weight="500" letter-spacing="-1.3">Fundação Oswaldo Cruz</text>
  </g>
</svg>
